<?xml version="1.0" encoding="UTF-8" standalone="no"?>
<!DOCTYPE svg PUBLIC "-//W3C//DTD SVG 1.1//EN" "http://www.w3.org/Graphics/SVG/1.1/DTD/svg11.dtd">
<svg width="100%" height="100%" viewBox="0 0 470 470" version="1.1" xmlns="http://www.w3.org/2000/svg" xmlnsXlink="http://www.w3.org/1999/xlink" xmlSpace="preserve" xmlnsSerif="http://www.serif.com/" style="fill-rule:evenodd;clip-rule:evenodd;stroke-linejoin:round;stroke-miterlimit:2;">
    <g transform="matrix(1,0,0,1,-554,-50)">
        <g id="Layer2">
        </g>
        <g id="Layer21" serifId="Layer2" transform="matrix(0.271637,0.277051,-0.277051,0.271637,750.87,-134.926)">
            <path d="M786.747,184.631L120.098,686.485L795.488,1257.04L821.156,1037.41L1212.09,1098.64L1215.51,321.871L804.388,391.325L786.747,184.631Z" style="fill:rgb(30,35,39);"/>
            <g transform="matrix(1.16952,0.00621762,-0.00621762,1.16952,-129.063,-127.811)">
                <path d="M300.525,695.713L741.091,375.873L730.503,518.78L1087.76,455.928L1092.05,963.593L732.538,913.681L756.081,1065.21L300.525,695.713Z" style="fill:rgb(224,236,239);"/>
            </g>
            <g transform="matrix(1.70297,0,0,1.70297,-856.27,-277.013)">
                <path d="M1088.9,651.425L932.466,696.673L1148.14,723.382L1152.95,429.405L1088.9,651.425Z" style="fill:rgb(117,204,221);"/>
            </g>
            <g transform="matrix(1.80437,-1.84033,1.84033,1.80437,-945.368,1562.23)">
                <text x="606.14px" y="283.53px" style="font-family:'Futura-CondensedExtraBold', 'Futura', sans-serif;font-weight:800;font-stretch:condensed;font-size:116px;">NW</text>
            </g>
        </g>
        <g id="Layer22" serifId="Layer2">
        </g>
        <g id="Layer23" serifId="Layer2">
        </g>
        <g id="Layer24" serifId="Layer2">
        </g>
        <g id="Layer25" serifId="Layer2">
        </g>
        <g id="Layer26" serifId="Layer2">
        </g>
        <g id="Layer27" serifId="Layer2">
        </g>
    </g>
</svg>
